<?xml version="1.0" encoding="UTF-8" standalone="no"?>
<svg xmlns="http://www.w3.org/2000/svg" id="svg2606" height="22" width="22" version="1">
    <g id="layer1">
        <g id="g2519" transform="translate(-8.168 -7.868) scale(.2995)">
            <circle id="circle2521" r="5.993" cy="41.768" cx="85.233" fill="#fc0"/>
            <circle id="circle2523" r="5.992" cy="33.995" cx="71.773" fill="#f90"/>
            <circle id="circle2525" r="5.993" cy="55.229" cx="93.006" fill="#ff0"/>
            <circle id="circle2527" r="5.994" cy="33.995" cx="56.226" fill="#f60"/>
            <circle id="circle2529" r="5.992" cy="70.773" cx="93.005" fill="#9f0"/>
            <path id="path2531" d="M38.527 37.53a5.997 5.997 0 0 1 8.478 0 5.996 5.996 0 0 1 0 8.475 5.998 5.998 0 0 1-8.478.002 5.998 5.998 0 0 1 0-8.477z" fill="red"/>
            <path id="path2533" d="M80.996 79.995a5.996 5.996 0 0 1 8.475 0A5.995 5.995 0 0 1 81 88.472a5.997 5.997 0 0 1 0-8.477z" fill="#0c0"/>
            <path id="path2535" d="M36.544 49.442a5.99 5.99 0 0 1 4.24 7.338 5.99 5.99 0 0 1-7.34 4.236 5.987 5.987 0 0 1-4.237-7.34 5.987 5.987 0 0 1 7.337-4.234z" fill="#c09"/>
            <path id="path2537" d="M70.222 86.216a5.99 5.99 0 0 1 7.338 4.24 5.992 5.992 0 0 1-11.575 3.1 5.992 5.992 0 0 1 4.237-7.34z" fill="#099"/>
            <path id="path2539" d="M33.443 64.985a5.993 5.993 0 1 1-4.236 7.34 5.987 5.987 0 0 1 4.236-7.34z" fill="#609"/>
            <circle id="circle2541" r="5.993" cy="92.005" cx="56.226" fill="#03c"/>
            <path id="path2543" d="M38.527 79.995a5.998 5.998 0 0 1 8.477 0 5.998 5.998 0 0 1 0 8.477 5.998 5.998 0 0 1-8.477 0 5.998 5.998 0 0 1 0-8.477z" fill="#309"/>
            <path id="path2545" d="M38.527 46.006a5.998 5.998 0 0 0 8.477-.002 5.996 5.996 0 0 0 0-8.475 5.997 5.997 0 0 0-8.477 0 5.998 5.998 0 0 0 0 8.473z" fill="none"/>
            <path id="path2547" d="M33.444 61.016a5.99 5.99 0 1 0 3.1-11.574 5.988 5.988 0 0 0-7.337 4.234 5.987 5.987 0 0 0 4.237 7.34z" fill="none"/>
            <circle id="circle2549" r="5.992" cy="70.773" cx="34.993" fill="none"/>
            <path id="path2551" d="M47.004 88.472a5.998 5.998 0 0 0 0-8.477 5.998 5.998 0 0 0-8.477 0 5.998 5.998 0 0 0 0 8.477 5.998 5.998 0 0 0 8.477 0z" fill="none"/>
            <circle id="circle2553" r="5.992" cy="92.006" cx="56.228" fill="none"/>
            <path id="path2555" d="M62.017 32.445a5.993 5.993 0 0 0-11.577 3.1 5.99 5.99 0 0 0 7.338 4.24 5.996 5.996 0 0 0 4.24-7.34z" fill="none"/>
            <g id="XMLID_1_">
                <path id="path2558" d="M75.63 56.286a3.352 3.352 0 0 1 1.227-4.574 3.35 3.35 0 0 1 4.574 1.225 3.35 3.35 0 0 1-5.8 3.35z" fill="#ffe500"/>
                <circle id="circle2560" r="3.347" cy="48.469" cx="72.389" fill="#ffb200"/>
                <path id="path2562" d="M60.652 46.223a3.347 3.347 0 0 1 3.346-3.35 3.344 3.344 0 0 1 3.35 3.35 3.348 3.348 0 0 1-6.696 0z" fill="#ff8000"/>
                <path id="path2564" d="M77.43 63a3.348 3.348 0 0 1 6.7-.002 3.346 3.346 0 0 1-3.35 3.35A3.347 3.347 0 0 1 77.43 63z" fill="#cf0"/>
                <path id="path2566" d="M53.934 45.57a3.348 3.348 0 0 1 4.576 1.226 3.347 3.347 0 0 1-1.226 4.575 3.35 3.35 0 0 1-4.575-1.222 3.353 3.353 0 0 1 1.22-4.574z" fill="#f30"/>
                <circle id="circle2568" r="3.349" cy="71.391" cx="78.531" fill="#3f0"/>
                <path id="path2570" d="M51.142 51.713a3.348 3.348 0 1 1-4.573 1.223 3.344 3.344 0 0 1 4.57-1.223z" fill="#e50066"/>
                <circle id="circle2572" r="3.348" cy="77.531" cx="72.391" fill="#00b266"/>
                <path id="path2574" d="M50.568 63c0 1.85-1.5 3.35-3.347 3.346A3.343 3.343 0 0 1 43.878 63a3.34 3.34 0 0 1 3.346-3.348c1.853 0 3.35 1.5 3.35 3.348z" fill="#909"/>
                <circle id="circle2576" r="3.348" cy="79.778" cx="64" fill="#0066b2"/>
                <path id="path2578" d="M47.793 68.49a3.35 3.35 0 1 1 3.35 5.8 3.35 3.35 0 0 1-3.35-5.8z" fill="#400099"/>
                <path id="path2580" d="M58.51 79.206a3.35 3.35 0 1 1-5.8-3.35 3.35 3.35 0 0 1 5.8 3.35z" fill="#1919b2"/>
            </g>
        </g>
    </g>
</svg>
