<?xml version="1.0" encoding="UTF-8" standalone="no"?>
<svg xmlns="http://www.w3.org/2000/svg" id="svg4587" version="1" width="22" height="22">
    <g id="g4585" transform="translate(-8.168 -7.868) scale(.2995)">
        <circle id="circle4545" cx="85.233" cy="41.768" r="5.993"/>
        <circle id="circle4547" cx="71.773" cy="33.995" r="5.992"/>
        <circle id="circle4549" cx="93.006" cy="55.229" r="5.993"/>
        <circle id="circle4551" cx="56.226" cy="33.995" r="5.994"/>
        <circle id="circle4553" cx="93.005" cy="70.773" r="5.992"/>
        <path id="path4555" d="M38.527 37.53a5.997 5.997 0 0 1 8.478 0 5.996 5.996 0 0 1 0 8.475 5.998 5.998 0 0 1-8.478.002 5.998 5.998 0 0 1 0-8.477zm42.47 42.465a5.996 5.996 0 0 1 8.474 0 5.995 5.995 0 0 1-8.473 8.477 5.997 5.997 0 0 1 0-8.477zM36.543 49.442a5.99 5.99 0 0 1 4.24 7.338 5.99 5.99 0 0 1-7.34 4.236 5.987 5.987 0 0 1-4.237-7.34 5.987 5.987 0 0 1 7.337-4.234zM70.22 86.216a5.99 5.99 0 0 1 7.34 4.24 5.992 5.992 0 0 1-11.576 3.1 5.992 5.992 0 0 1 4.237-7.34zm-36.78-21.23a5.993 5.993 0 1 1-4.234 7.34 5.987 5.987 0 0 1 4.236-7.34z"/>
        <circle id="circle4557" cx="56.226" cy="92.005" r="5.993"/>
        <path id="path4559" d="M38.527 79.995a5.998 5.998 0 0 1 8.477 0 5.998 5.998 0 0 1 0 8.477 5.998 5.998 0 0 1-8.477 0 5.998 5.998 0 0 1 0-8.477zm0-33.99a5.998 5.998 0 0 0 8.477 0 5.996 5.996 0 0 0 0-8.476 5.997 5.997 0 0 0-8.477 0 5.998 5.998 0 0 0 0 8.474zm-5.083 15.01a5.99 5.99 0 1 0 3.1-11.573 5.988 5.988 0 0 0-7.337 4.234 5.987 5.987 0 0 0 4.237 7.34z"/>
        <circle id="circle4561" cx="34.993" cy="70.773" r="5.992"/>
        <path id="path4563" d="M47.004 88.472a5.998 5.998 0 0 0 0-8.477 5.998 5.998 0 0 0-8.477 0 5.998 5.998 0 0 0 0 8.477 5.998 5.998 0 0 0 8.477 0z"/>
        <circle id="circle4565" cx="56.228" cy="92.006" r="5.992"/>
        <path id="path4567" d="M62.017 32.445a5.993 5.993 0 0 0-11.577 3.1 5.99 5.99 0 0 0 7.338 4.24 5.996 5.996 0 0 0 4.24-7.34zm13.613 23.84a3.352 3.352 0 0 1 1.227-4.573 3.35 3.35 0 0 1 4.574 1.225 3.35 3.35 0 0 1-5.8 3.35z"/>
        <circle id="circle4569" cx="72.389" cy="48.469" r="3.347"/>
        <path id="path4571" d="M60.652 46.223a3.347 3.347 0 0 1 3.346-3.35 3.344 3.344 0 0 1 3.35 3.35 3.348 3.348 0 0 1-6.696 0zM77.43 63a3.35 3.35 0 0 1 6.7-.002 3.346 3.346 0 0 1-3.35 3.35A3.347 3.347 0 0 1 77.43 63zM53.934 45.57a3.348 3.348 0 0 1 4.576 1.226 3.347 3.347 0 0 1-1.226 4.575 3.35 3.35 0 0 1-4.575-1.223 3.353 3.353 0 0 1 1.222-4.574z"/>
        <circle id="circle4573" cx="78.531" cy="71.391" r="3.349"/>
        <path id="path4575" d="M51.142 51.713a3.348 3.348 0 1 1-4.573 1.223 3.344 3.344 0 0 1 4.57-1.223z"/>
        <circle id="circle4577" cx="72.391" cy="77.531" r="3.348"/>
        <path id="path4579" d="M50.568 63c0 1.85-1.5 3.35-3.347 3.346A3.343 3.343 0 0 1 43.877 63a3.34 3.34 0 0 1 3.346-3.348c1.853 0 3.35 1.5 3.35 3.348z"/>
        <circle id="circle4581" cx="64" cy="79.778" r="3.348"/>
        <path id="path4583" d="M47.793 68.49a3.35 3.35 0 1 1 3.35 5.8 3.35 3.35 0 0 1-3.35-5.8zM58.51 79.206a3.35 3.35 0 1 1-5.8-3.35 3.35 3.35 0 0 1 5.8 3.35z"/>
    </g>
</svg>
