<?xml version="1.0" encoding="UTF-8" standalone="no"?><svg xmlns="http://www.w3.org/2000/svg" viewBox="0 0 264 162" width="264" height="162">
<style type="text/css">
	.st0{fill:#3466CC;}
	.st1{fill:#E5E5E5;}
	.st2{fill:#FFFFFF;}
	.st3{opacity:6.000000e-02;enable-background:new    ;}
	.st4{opacity:7.000000e-02;enable-background:new    ;}
	.st5{opacity:0.25;fill:none;stroke:#FFFFFF;stroke-width:0.5;stroke-miterlimit:10;enable-background:new    ;}
	.st6{fill:#00AF89;}
	.st7{opacity:0.23;fill:#F5A623;enable-background:new    ;}
	.st8{fill:#F5A623;}
</style>
<g>
	<g>
		<path class="st0" d="M49.9,104v1h-2.1v12.5h2.1v1h-3.3V104H49.9z"/>
		<path class="st0" d="M55,104v1h-2.1v12.5H55v1h-3.3V104H55z"/>
	</g>
	<g id="Page-1" >
		<path id="Ellipse"   class="st1" d="M253,24L253,24C253,31.7,253,24,253,24c0,7.7-6.3,14-14,14
			s-14-6.3-14-14s6.3-14,14-14S253,16.3,253,24L253,24z"/>
		<g id="Group-_x2B_-Shape-_x2B_-Shape" >
			<g  >
				<g id="Group">
					<path id="Shape" class="st2" d="M225.4,161.3l-9.8-8V42.5h-155v114.2l-7.6-5.3l-4.4,3.7V42.5h-39v116.4l-9-6.7V0.5h263v151.3
						l-12.9,9.6l-11.5-10L225.4,161.3z"/>
					<path id="Shape_1_" class="st1" d="M1,1h262v150.5l-12.3,9.2l-10.9-9.5l-0.6-0.5l-0.6,0.5l-13.3,9.6l-9.3-7.7V43v-1h-1H61h-1v1
						v112.7l-6.5-4.6l-0.6-0.4l-0.6,0.5L49,154V43v-1h-1H10H9v1v115l-8-6V1L1,1z M0,0L0,0L0,0l0,152.5l10,7.4V43h38v113.2l4.9-4.2
						l8.1,5.7V43h154v110.6l10.2,8.4l13.9-10l11.5,10l13.4-10V0L0,0L0,0z"/>
				</g>
				<path id="Shape_2_" class="st1" d="M61,157.7l5.8,4.3l13-10l13,10l14.2-10l13.4,10l12.1-10l13.8,10l13-10l13,10l14.2-10l13.8,10
					l12.6-10l2.1,1.6V43H61V157.7z"/>
				<path id="Shape_3_" class="st1" d="M10,159.9L10,159.9L10,159.9l2.7,2.1l13.9-10l13.8,10l7.6-5.8V43H10V159.9L10,159.9z"/>
			</g>
		</g>
		<path id="Shape_4_"   class="st1" d="M226,137L226,137L226,137h25V60h-25V137L226,137z"/>
		<path id="Shape_5_"   class="st1" d="M31,5L31,5L31,5v6H5V5H31L31,5z"/>
		<rect id="Rectangle" x="37" y="5"   class="st1" width="6" height="6">
		</rect>
		<rect id="Rectangle-copy" x="47" y="5"   class="st1" width="6" height="6">
		</rect>
		<rect id="Rectangle-copy-2" x="57" y="5"   class="st1" width="6" height="6">
		</rect>
		<path id="Shape_6_"   class="st1" d="M226,47L226,47L226,47h25v-5h-25V47L226,47z"/>
		<path id="Ellipse_1_"   class="st1" d="M253,24c0,7.7-6.3,14-14,14s-14-6.3-14-14s6.3-14,14-14
			S253,16.3,253,24L253,24z"/>
	</g>
	<g>
		<path class="st0" d="M205.9,78.9v-1h2.1V65.2h-2.1v-1h3.4v14.7C209.3,78.9,205.9,78.9,205.9,78.9z"/>
		<path class="st0" d="M200.7,78.9v-1h2.1V65.2h-2.2v-1h3.4v14.7C204,78.9,200.7,78.9,200.7,78.9z"/>
	</g>
	<g>
		<path class="st0" d="M69.7,112.5v1h-2.1V126h2.1v1h-3.3v-14.5H69.7z"/>
		<path class="st0" d="M74.8,112.5v1h-2.1V126h2.1v1h-3.3v-14.5H74.8z"/>
	</g>
	<g>
		<rect id="Rectangle-4_3_" x="99.6" y="63.9"   class="st2" width="96.7" height="2">
		</rect>
		<rect id="Rectangle-4_4_" x="78.9" y="91.6"   class="st2" width="117.4" height="2">
		</rect>
		<rect id="Rectangle-4_5_" x="99.6" y="70.9"   class="st2" width="96.7" height="2">
		</rect>
		<rect id="Rectangle-4_6_" x="99.6" y="84.7"   class="st2" width="96.7" height="2">
		</rect>
		<rect id="Rectangle-4_7_" x="99.6" y="77.8"   class="st2" width="96.7" height="2">
		</rect>
		<rect id="Rectangle-4_10_" x="78.9" y="98.7"   class="st2" width="117.4" height="1.7">
		</rect>
		<rect id="Rectangle-4_9_" x="78.9" y="126.3"   class="st3" width="117.4" height="1.7">
		</rect>
		<rect id="Rectangle-4_8_" x="78.9" y="105.7"   class="st2" width="117.4" height="1.4">
		</rect>
		<rect id="Rectangle-4_2_" x="78.9" y="119.4"   class="st2" width="117.4" height="1.7">
		</rect>
		<rect id="Rectangle-4_1_" x="78.9" y="112.5"   class="st3" width="117.4" height="1.6">
		</rect>
	</g>
	<rect x="60.2" y="42.1" class="st4" width="155.6" height="8.7"/>
	<line class="st5" x1="206" y1="50.8" x2="206" y2="42.1"/>
	<line class="st5" x1="196.9" y1="50.8" x2="196.9" y2="42.1"/>
	<line class="st5" x1="187.4" y1="50.8" x2="187.4" y2="42.1"/>
	<line class="st5" x1="178.2" y1="50.8" x2="178.2" y2="42.1"/>
	<line class="st5" x1="168.4" y1="50.8" x2="168.4" y2="42.1"/>
	<line class="st5" x1="159.3" y1="50.8" x2="159.3" y2="42.1"/>
	<g>
		<path class="st0" d="M73.9,63.1c0.4-0.5,0.8-0.8,1.3-0.9c0,0,11.4,11.5,14.3,14.4c-0.4,0.2-0.9,0.6-1.3,1L73.9,63.1z M70.8,65.6
			L86,80.7l6.3,1.3L91,75.7L75.8,60.5C73.3,60.5,70.8,63,70.8,65.6z"/>
	</g>
	<g>
		<rect x="161.1" y="63.9" class="st6" width="19.1" height="2.1"/>
		<rect x="105.6" y="70.7" class="st6" width="17.7" height="2.3"/>
		<rect x="154.9" y="77" class="st7" width="27" height="3.6"/>
		<rect x="126.4" y="77" class="st7" width="27" height="3.6"/>
		<rect x="116.9" y="98.5" class="st6" width="63.3" height="2.1"/>
		<rect x="80.1" y="91.6" class="st8" width="40.7" height="2.1"/>
		<rect x="94.6" y="112.3" class="st8" width="34.1" height="2.1"/>
	</g>
</g>
</svg>
