<?xml version="1.0" encoding="UTF-8" standalone="no"?><svg xmlns="http://www.w3.org/2000/svg" viewBox="0 0 264 162" width="264" height="162">
<style type="text/css">
	.st0{fill:#3466CC;}
	.st1{fill:#E5E5E5;}
	.st2{fill:#FFFFFF;}
	.st3{opacity:6.000000e-02;enable-background:new    ;}
	.st4{opacity:7.000000e-02;enable-background:new    ;}
	.st5{opacity:0.25;fill:none;stroke:#FFFFFF;stroke-width:0.5;stroke-miterlimit:10;enable-background:new    ;}
	.st6{fill:#00AF89;}
	.st7{opacity:0.23;fill:#F5A623;enable-background:new    ;}
	.st8{fill:#F5A623;}
</style>
<g>
	<path class="st0" d="M217.4,104v14.5h-3.3v-1h2.1V105h-2.1v-1H217.4z"/>
	<path class="st0" d="M212.3,104v14.5H209v-1h2.1V105H209v-1H212.3z"/>
</g>
<g id="Page-1">
	<path id="Ellipse"  class="st1" d="M11,24c0-7.7,6.3-14,14-14s14,6.3,14,14s-6.3,14-14,14S11,31.7,11,24
		C11,24,11,31.7,11,24L11,24L11,24z"/>
	<g id="Group-_x2B_-Shape-_x2B_-Shape">
		<g >
			<g id="Group">
				<path id="Shape" class="st2" d="M24.8,151.4l-11.5,10l-12.9-9.6V0.5h263v151.7l-9,6.7V42.5h-39v112.6l-4.4-3.7l-7.6,5.3V42.5
					h-155v110.8l-9.8,8L24.8,151.4z"/>
				<path id="Shape_1_" class="st1" d="M263,1v151l-8,6V43v-1h-1h-38h-1v1v111l-3.3-2.8l-0.6-0.5l-0.6,0.4l-6.5,4.6V43v-1h-1H49h-1
					v1v110.1l-9.3,7.7l-13.3-9.6l-0.6-0.5l-0.6,0.5l-10.9,9.5L1,151.5V1H263L263,1z M264,0H0v152l13.4,10l11.5-10l13.9,10l10.2-8.4
					V43h154v114.7l8.1-5.7l4.9,4.2V43h38v116.9l10-7.4V0L264,0L264,0L264,0z"/>
			</g>
			<path id="Shape_2_" class="st1" d="M203,43H49v110.6l2.1-1.6l12.6,10l13.8-10l14.2,10l13-10l13,10l13.8-10l12.1,10l13.4-10
				l14.2,10l13-10l13,10l5.8-4.3V43z"/>
			<path id="Shape_3_" class="st1" d="M254,159.9V43h-38v113.2l7.6,5.8l13.8-10l13.9,10L254,159.9L254,159.9L254,159.9L254,159.9z"
				/>
		</g>
	</g>
	<path id="Shape_4_"  class="st1" d="M38,137V60H13v77H38L38,137L38,137L38,137z"/>
	<path id="Shape_5_"  class="st1" d="M233,5h26v6h-26V5L233,5L233,5L233,5z"/>
	<rect id="Rectangle" x="221" y="5"   class="st1" width="6" height="6">
	</rect>
	<rect id="Rectangle-copy" x="211" y="5"  class="st1" width="6" height="6">
	</rect>
	<rect id="Rectangle-copy-2" x="201" y="5"  class="st1" width="6" height="6">
	</rect>
	<path id="Shape_6_"  class="st1" d="M38,47v-5H13v5H38L38,47L38,47L38,47z"/>
	<path id="Ellipse_1_"  class="st1" d="M11,24c0-7.7,6.3-14,14-14s14,6.3,14,14s-6.3,14-14,14
		S11,31.7,11,24L11,24z"/>
</g>
<g>
	<path class="st0" d="M54.7,78.9V64.2h3.4v1H56v12.7h2.1v1C58.1,78.9,54.7,78.9,54.7,78.9z"/>
	<path class="st0" d="M60,78.9V64.2h3.4v1h-2.2v12.7h2.1v1C63.3,78.9,60,78.9,60,78.9z"/>
</g>
<g>
	<path class="st0" d="M197.6,112.5V127h-3.3v-1h2.1v-12.5h-2.1v-1H197.6z"/>
	<path class="st0" d="M192.5,112.5V127h-3.3v-1h2.1v-12.5h-2.1v-1H192.5z"/>
</g>
<g>
	<rect id="Rectangle-4_3_" x="67.7" y="63.9"   class="st2" width="96.7" height="2">
	</rect>
	<rect id="Rectangle-4_4_" x="67.7" y="91.6"   class="st2" width="117.4" height="2">
	</rect>
	<rect id="Rectangle-4_5_" x="67.7" y="70.9"   class="st2" width="96.7" height="2">
	</rect>
	<rect id="Rectangle-4_6_" x="67.7" y="84.7"   class="st2" width="96.7" height="2">
	</rect>
	<rect id="Rectangle-4_7_" x="67.7" y="77.8"   class="st2" width="96.7" height="2">
	</rect>
	<rect id="Rectangle-4_10_" x="67.7" y="98.7"   class="st2" width="117.4" height="1.7">
	</rect>
	<rect id="Rectangle-4_9_" x="67.7" y="126.3"   class="st3" width="117.4" height="1.7">
	</rect>
	<rect id="Rectangle-4_8_" x="67.7" y="105.7"   class="st2" width="117.4" height="1.4">
	</rect>
	<rect id="Rectangle-4_2_" x="67.7" y="119.4"   class="st2" width="117.4" height="1.7">
	</rect>
	<rect id="Rectangle-4_1_" x="67.7" y="112.5"   class="st3" width="117.4" height="1.6">
	</rect>
</g>
<rect x="48.2" y="42.1" class="st4" width="155.6" height="8.7"/>
<line class="st5" x1="58" y1="42.1" x2="58" y2="50.8"/>
<line class="st5" x1="67.1" y1="42.1" x2="67.1" y2="50.8"/>
<line class="st5" x1="76.6" y1="42.1" x2="76.6" y2="50.8"/>
<line class="st5" x1="85.8" y1="42.1" x2="85.8" y2="50.8"/>
<line class="st5" x1="95.6" y1="42.1" x2="95.6" y2="50.8"/>
<line class="st5" x1="104.7" y1="42.1" x2="104.7" y2="50.8"/>
<g>
	<path class="st0" d="M175.8,77.6c-0.4-0.4-0.9-0.8-1.3-1c2.9-2.9,14.3-14.4,14.3-14.4c0.5,0.1,0.9,0.4,1.3,0.9L175.8,77.6z
		 M188.2,60.5L173,75.7l-1.3,6.3l6.3-1.3l15.2-15.1C193.2,63,190.7,60.5,188.2,60.5z"/>
</g>
<g>
	<rect x="83.8" y="63.9" class="st6" width="19.1" height="2.1"/>
	<rect x="140.7" y="70.7" class="st6" width="17.7" height="2.3"/>
	<rect x="82.1" y="77" class="st7" width="27" height="3.6"/>
	<rect x="110.6" y="77" class="st7" width="27" height="3.6"/>
	<rect x="83.8" y="98.5" class="st6" width="63.3" height="2.1"/>
	<rect x="143.2" y="91.6" class="st8" width="40.7" height="2.1"/>
	<rect x="135.3" y="112.3" class="st8" width="34.1" height="2.1"/>
</g>
</svg>
