<?xml version="1.0" encoding="utf-8"?>
<!-- Generator: Adobe Illustrator 21.1.0, SVG Export Plug-In . SVG Version: 6.00 Build 0)  -->
<svg version="1.1" id="Layer_1" xmlns:sketch="http://www.bohemiancoding.com/sketch/ns"
	 xmlns="http://www.w3.org/2000/svg" xmlns:xlink="http://www.w3.org/1999/xlink" x="0px" y="0px" viewBox="0 0 264 162"
	 style="enable-background:new 0 0 264 162;" xml:space="preserve">
<style type="text/css">
	.st0{fill:#E5E5E5;}
	.st1{fill:#FFFFFF;}
	.st2{fill:#3466CC;}
	.st3{opacity:6.000000e-02;}
	.st4{fill:#00AF89;}
	.st5{opacity:0.23;fill:#F5A623;}
	.st6{fill:#F5A623;}
	.st7{opacity:7.000000e-02;}
	.st8{opacity:0.25;fill:none;stroke:#FFFFFF;stroke-width:0.5;stroke-miterlimit:10;}
</style>
<title>Slice 2</title>
<desc>Created with Sketch.</desc>
<g id="Page-1" sketch:type="MSPage">
	<path id="Ellipse" sketch:type="MSShapeGroup" class="st0" d="M11,24c0-7.7,6.3-14,14-14s14,6.3,14,14s-6.3,14-14,14S11,31.7,11,24
		C11,24,11,31.7,11,24L11,24L11,24z"/>
	<g id="Group-_x2B_-Shape-_x2B_-Shape" sketch:type="MSLayerGroup">
		<g sketch:type="MSShapeGroup">
			<g id="Group">
				<path id="Shape" class="st1" d="M24.8,151.4l-11.5,10l-12.9-9.6V0.5h263v151.7l-9,6.7V42.5h-39v112.6l-4.4-3.7l-7.6,5.3V42.5
					h-155v110.8l-9.8,8L24.8,151.4z"/>
				<path id="Shape_1_" class="st0" d="M263,1v151l-8,6V43v-1h-1h-38h-1v1v111l-3.3-2.8l-0.6-0.5l-0.6,0.4l-6.5,4.6V43v-1h-1H49h-1
					v1v110.1l-9.3,7.7l-13.3-9.6l-0.6-0.5l-0.6,0.5l-10.9,9.5L1,151.5V1H263L263,1z M264,0H0v152l13.4,10l11.5-10l13.9,10l10.2-8.4
					V43h154v114.7l8.1-5.7l4.9,4.2V43h38v116.9l10-7.4V0L264,0L264,0L264,0z"/>
			</g>
			<path id="Shape_2_" class="st0" d="M203,43H49v110.6l2.1-1.6l12.6,10l13.8-10l14.2,10l13-10l13,10l13.8-10l12.1,10l13.4-10
				l14.2,10l13-10l13,10l5.8-4.3V43z"/>
			<path id="Shape_3_" class="st0" d="M254,159.9V43h-38v113.2l7.6,5.8l13.8-10l13.9,10L254,159.9L254,159.9L254,159.9L254,159.9z"
				/>
		</g>
	</g>
	<path id="Shape_4_" sketch:type="MSShapeGroup" class="st0" d="M38,137V60H13v77H38L38,137L38,137L38,137z"/>
	<path id="Shape_5_" sketch:type="MSShapeGroup" class="st0" d="M233,5h26v6h-26V5L233,5L233,5L233,5z"/>
	<rect id="Rectangle" x="221" y="5" sketch:type="MSShapeGroup" class="st0" width="6" height="6">
	</rect>
	<rect id="Rectangle-copy" x="211" y="5" sketch:type="MSShapeGroup" class="st0" width="6" height="6">
	</rect>
	<rect id="Rectangle-copy-2" x="201" y="5" sketch:type="MSShapeGroup" class="st0" width="6" height="6">
	</rect>
	<path id="Shape_6_" sketch:type="MSShapeGroup" class="st0" d="M38,47v-5H13v5H38L38,47L38,47L38,47z"/>
	<path id="Ellipse_1_" sketch:type="MSShapeGroup" class="st0" d="M11,24c0-7.7,6.3-14,14-14s14,6.3,14,14s-6.3,14-14,14
		S11,31.7,11,24L11,24z"/>
</g>
<g>
	<path class="st2" d="M54.5,78.4V63.7h3.4v1h-2.1v12.7h2.1v1H54.5z"/>
	<path class="st2" d="M59.8,78.4V63.7h3.4v1H61v12.7h2.1v1H59.8z"/>
</g>
<g>
	<path class="st2" d="M197.4,112v14.5h-3.3v-1h2.1V113h-2.1v-1H197.4z"/>
	<path class="st2" d="M192.3,112v14.5h-3.3v-1h2.1V113h-2.1v-1H192.3z"/>
</g>
<g>
	<rect id="Rectangle-4_3_" x="67.5" y="63.4" sketch:type="MSShapeGroup" class="st1" width="96.7" height="2">
	</rect>
	<rect id="Rectangle-4_4_" x="67.5" y="91.1" sketch:type="MSShapeGroup" class="st1" width="117.4" height="2">
	</rect>
	<rect id="Rectangle-4_5_" x="67.5" y="70.4" sketch:type="MSShapeGroup" class="st1" width="96.7" height="2">
	</rect>
	<rect id="Rectangle-4_6_" x="67.5" y="84.2" sketch:type="MSShapeGroup" class="st1" width="96.7" height="2">
	</rect>
	<rect id="Rectangle-4_7_" x="67.5" y="77.3" sketch:type="MSShapeGroup" class="st1" width="96.7" height="2">
	</rect>
	<rect id="Rectangle-4_10_" x="67.5" y="98.2" sketch:type="MSShapeGroup" class="st1" width="117.4" height="1.7">
	</rect>
	<rect id="Rectangle-4_9_" x="67.5" y="125.8" sketch:type="MSShapeGroup" class="st3" width="117.4" height="1.7">
	</rect>
	<rect id="Rectangle-4_8_" x="67.5" y="105.2" sketch:type="MSShapeGroup" class="st1" width="117.4" height="1.4">
	</rect>
	<rect id="Rectangle-4_2_" x="67.5" y="118.9" sketch:type="MSShapeGroup" class="st1" width="117.4" height="1.7">
	</rect>
	<rect id="Rectangle-4_1_" x="67.5" y="112" sketch:type="MSShapeGroup" class="st3" width="117.4" height="1.6">
	</rect>
</g>
<g>
	<rect x="84.8" y="70.3" class="st4" width="19.1" height="2.1"/>
	<rect x="141.7" y="77.1" class="st4" width="17.7" height="2.3"/>
	<rect x="83.1" y="83.4" class="st5" width="27" height="3.6"/>
	<rect x="111.6" y="83.4" class="st5" width="27" height="3.6"/>
	<rect x="84.8" y="104.9" class="st4" width="63.3" height="2.1"/>
	<rect x="144.2" y="98" class="st6" width="40.7" height="2.1"/>
	<rect x="136.3" y="118.7" class="st6" width="34.1" height="2.1"/>
</g>
<rect x="48" y="42" class="st7" width="155.6" height="8.7"/>
<line class="st8" x1="57.8" y1="42" x2="57.8" y2="50.7"/>
<line class="st8" x1="66.9" y1="42" x2="66.9" y2="50.7"/>
<line class="st8" x1="76.4" y1="42" x2="76.4" y2="50.7"/>
<line class="st8" x1="85.6" y1="42" x2="85.6" y2="50.7"/>
<line class="st8" x1="95.4" y1="42" x2="95.4" y2="50.7"/>
<line class="st8" x1="104.5" y1="42" x2="104.5" y2="50.7"/>
<g>
	<path class="st2" d="M175.6,77.1c-0.4-0.4-0.9-0.8-1.3-1c2.9-2.9,14.3-14.4,14.3-14.4c0.5,0.1,0.9,0.4,1.3,0.9L175.6,77.1z M188,60
		l-15.2,15.2l-1.3,6.3l6.3-1.3L193,65.1C193,62.5,190.5,60,188,60z"/>
</g>
</svg>
