<?xml version="1.0" encoding="utf-8"?>
<!-- Generator: Adobe Illustrator 21.1.0, SVG Export Plug-In . SVG Version: 6.00 Build 0)  -->
<svg version="1.1" id="Layer_1" xmlns:sketch="http://www.bohemiancoding.com/sketch/ns"
	 xmlns="http://www.w3.org/2000/svg" xmlns:xlink="http://www.w3.org/1999/xlink" x="0px" y="0px" viewBox="0 0 264 162"
	 style="enable-background:new 0 0 264 162;" xml:space="preserve">
<style type="text/css">
	.st0{fill:#E5E5E5;}
	.st1{fill:#FFFFFF;}
	.st2{fill:#3466CC;}
	.st3{opacity:6.000000e-02;enable-background:new    ;}
	.st4{fill:#00AF89;}
	.st5{opacity:0.23;fill:#F5A623;enable-background:new    ;}
	.st6{fill:#F5A623;}
	.st7{opacity:7.000000e-02;enable-background:new    ;}
	.st8{opacity:0.25;fill:none;stroke:#FFFFFF;stroke-width:0.5;stroke-miterlimit:10;enable-background:new    ;}
</style>
<title>Slice 2</title>
<desc>Created with Sketch.</desc>
<g id="Page-1" sketch:type="MSPage">
	<path id="Ellipse" sketch:type="MSShapeGroup" class="st0" d="M253,24L253,24C253,31.7,253,24,253,24c0,7.7-6.3,14-14,14
		s-14-6.3-14-14s6.3-14,14-14S253,16.3,253,24L253,24z"/>
	<g id="Group-_x2B_-Shape-_x2B_-Shape" sketch:type="MSLayerGroup">
		<g sketch:type="MSShapeGroup">
			<g id="Group">
				<path id="Shape" class="st1" d="M225.4,161.3l-9.8-8V42.5h-155v114.2l-7.6-5.3l-4.4,3.7V42.5h-39v116.4l-9-6.7V0.5h263v151.3
					l-12.9,9.6l-11.5-10L225.4,161.3z"/>
				<path id="Shape_1_" class="st0" d="M1,1h262v150.5l-12.3,9.2l-10.9-9.5l-0.6-0.5l-0.6,0.5l-13.3,9.6l-9.3-7.7V43v-1h-1H61h-1v1
					v112.7l-6.5-4.6l-0.6-0.4l-0.6,0.5L49,154V43v-1h-1H10H9v1v115l-8-6V1L1,1z M0,0L0,0L0,0l0,152.5l10,7.4V43h38v113.2l4.9-4.2
					l8.1,5.7V43h154v110.6l10.2,8.4l13.9-10l11.5,10l13.4-10V0L0,0L0,0z"/>
			</g>
			<path id="Shape_2_" class="st0" d="M61,157.7l5.8,4.3l13-10l13,10l14.2-10l13.4,10l12.1-10l13.8,10l13-10l13,10l14.2-10l13.8,10
				l12.6-10l2.1,1.6V43H61V157.7z"/>
			<path id="Shape_3_" class="st0" d="M10,159.9L10,159.9L10,159.9l2.7,2.1l13.9-10l13.8,10l7.6-5.8V43H10V159.9L10,159.9z"/>
		</g>
	</g>
	<path id="Shape_4_" sketch:type="MSShapeGroup" class="st0" d="M226,137L226,137L226,137h25V60h-25V137L226,137z"/>
	<path id="Shape_5_" sketch:type="MSShapeGroup" class="st0" d="M31,5L31,5L31,5v6H5V5H31L31,5z"/>
	<rect id="Rectangle" x="37" y="5" sketch:type="MSShapeGroup" class="st0" width="6" height="6">
	</rect>
	<rect id="Rectangle-copy" x="47" y="5" sketch:type="MSShapeGroup" class="st0" width="6" height="6">
	</rect>
	<rect id="Rectangle-copy-2" x="57" y="5" sketch:type="MSShapeGroup" class="st0" width="6" height="6">
	</rect>
	<path id="Shape_6_" sketch:type="MSShapeGroup" class="st0" d="M226,47L226,47L226,47h25v-5h-25V47L226,47z"/>
	<path id="Ellipse_1_" sketch:type="MSShapeGroup" class="st0" d="M253,24c0,7.7-6.3,14-14,14s-14-6.3-14-14s6.3-14,14-14
		S253,16.3,253,24L253,24z"/>
</g>
<g>
	<path class="st2" d="M64.8,127.1v-14.7h3.4v1h-2.1v12.7h2.1v1C68.2,127.1,64.8,127.1,64.8,127.1z"/>
	<path class="st2" d="M70.1,127.1v-14.7h3.4v1h-2.2v12.7h2.1v1C73.4,127.1,70.1,127.1,70.1,127.1z"/>
</g>
<g>
	<path class="st2" d="M208.4,63.5V78h-3.3v-1h2.1V64.5h-2.1v-1H208.4z"/>
	<path class="st2" d="M203.3,63.5V78H200v-1h2.1V64.5H200v-1H203.3z"/>
</g>
<g>
	<rect id="Rectangle-4_3_" x="98.2" y="63.4" sketch:type="MSShapeGroup" class="st1" width="96.7" height="2">
	</rect>
	<rect id="Rectangle-4_4_" x="77.5" y="91.1" sketch:type="MSShapeGroup" class="st1" width="117.4" height="2">
	</rect>
	<rect id="Rectangle-4_5_" x="98.2" y="70.4" sketch:type="MSShapeGroup" class="st1" width="96.7" height="2">
	</rect>
	<rect id="Rectangle-4_6_" x="98.2" y="84.2" sketch:type="MSShapeGroup" class="st1" width="96.7" height="2">
	</rect>
	<rect id="Rectangle-4_7_" x="98.2" y="77.3" sketch:type="MSShapeGroup" class="st1" width="96.7" height="2">
	</rect>
	<rect id="Rectangle-4_10_" x="77.5" y="98.2" sketch:type="MSShapeGroup" class="st1" width="117.4" height="1.7">
	</rect>
	<rect id="Rectangle-4_9_" x="77.5" y="125.8" sketch:type="MSShapeGroup" class="st3" width="117.4" height="1.7">
	</rect>
	<rect id="Rectangle-4_8_" x="77.5" y="105.2" sketch:type="MSShapeGroup" class="st1" width="117.4" height="1.4">
	</rect>
	<rect id="Rectangle-4_2_" x="77.5" y="118.9" sketch:type="MSShapeGroup" class="st1" width="117.4" height="1.7">
	</rect>
	<rect id="Rectangle-4_1_" x="77.5" y="112" sketch:type="MSShapeGroup" class="st3" width="117.4" height="1.6">
	</rect>
</g>
<g>
	<rect x="170.1" y="70.3" class="st4" width="19.1" height="2.1"/>
	<rect x="114.6" y="77.1" class="st4" width="17.7" height="2.3"/>
	<rect x="163.9" y="83.4" class="st5" width="27" height="3.6"/>
	<rect x="135.4" y="83.4" class="st5" width="27" height="3.6"/>
	<rect x="125.9" y="104.9" class="st4" width="63.3" height="2.1"/>
	<rect x="89.1" y="98" class="st6" width="40.7" height="2.1"/>
	<rect x="103.6" y="118.7" class="st6" width="34.1" height="2.1"/>
</g>
<rect x="60.2" y="42" class="st7" width="155.6" height="8.7"/>
<line class="st8" x1="57.8" y1="42" x2="57.8" y2="50.7"/>
<line class="st8" x1="168.9" y1="42" x2="168.9" y2="50.7"/>
<line class="st8" x1="178.4" y1="42" x2="178.4" y2="50.7"/>
<line class="st8" x1="187.6" y1="42" x2="187.6" y2="50.7"/>
<line class="st8" x1="197.4" y1="42" x2="197.4" y2="50.7"/>
<line class="st8" x1="206.5" y1="42" x2="206.5" y2="50.7"/>
<g>
	<path class="st2" d="M72.3,62.6c0.4-0.5,0.8-0.8,1.3-0.9c0,0,11.4,11.5,14.3,14.4c-0.4,0.2-0.9,0.6-1.3,1L72.3,62.6z M69.2,65.1
		l15.2,15.1l6.3,1.3l-1.3-6.3L74.2,60C71.7,60,69.2,62.5,69.2,65.1z"/>
</g>
</svg>
