<?xml version="1.0" encoding="UTF-8" standalone="no"?>
<svg xmlns="http://www.w3.org/2000/svg" id="svg85" height="162" width="264" viewBox="0 0 264 162">
    <defs id="defs89">
        <clipPath id="jagged-edge">
            <path id="path2" d="M0 0v152l12 10 12-10 12 10 12-10 12 10 12-10 12 10 12-10 12 10 12-10 12 10 12-10 12 10 12-10 12 10 12-10 12 10 12-10 12 10 12-10 12 10 12-10V0z"/>
        </clipPath>
    </defs>
    <style id="style2">
        .st0{fill:#3466cc}.st1{fill:#e5e5e5}.st2{fill:#fff}.st3,.st4,.st5{opacity:6e-2;enable-background:new}.st4,.st5{opacity:7e-2}.st5{opacity:.25;fill:none;stroke:#fff;stroke-width:.5;stroke-miterlimit:10}.st6{fill:#00af89}.st7{opacity:.23;enable-background:new}.st7,.st8{fill:#f5a623}
    </style>
    <g id="screenshot" clip-path="url(#jagged-edge)">
        <path d="M263.5 162.25l-263-.5V.5h263z" id="background" fill="#fff"/>
        <path d="M252 162.496V29H48v133.496z" id="article" fill="#e5e5e5"/>
        <path d="M11 22c0-7.732 6.268-14 14-14s14 6.268 14 14-6.268 14-14 14-14-6.268-14-14z" id="logo" fill="#e5e5e5"/>
        <path d="M38 163.807V58H13v105.807z" id="sidebar" fill="#e5e5e5"/>
        <g id="personal-tools" fill="#e5e5e5">
            <path id="path10" d="M233 5h26v6h-26zm-24 0h22v6h-22zm-24 0h22v6h-22zm-23 0h13v6h-13zm15 0h6v6h-6zm-23 0h6v6h-6z"/>
        </g>
        <g id="search" fill="#e5e5e5">
            <path d="M258 16v4h-92v-4h92m1-1h-94v6h94z" id="path5717"/>
            <path d="M168 17h2v2h-2z" id="icon"/>
        </g>
        <path d="M38 45v-5H13v5z" id="sitename" fill="#e5e5e5"/>
        <path id="border" d="M0 0v162h264V0zm1 1h262v150.533l-11 9.166-12-10-12 10-12-10-12 10-12-10-12 10-12-10-12 10-12-10-12 10-12-10-12 10-12-10-12 10-12-10-12 10-12-10-12 10-12-10-12 10-11-9.167z" fill="#e5e5e5"/>
    </g>
    <g transform="translate(-13.885 -39.345) scale(1.30738)" id="g31">
        <path id="path27" d="M54.7 78.9V64.2h3.4v1H56v12.7h2.1v1h-3.4z" class="st0" fill="#3466cc"/>
        <path id="path29" d="M60 78.9V64.2h3.4v1h-2.2v12.7h2.1v1H60z" class="st0" fill="#3466cc"/>
    </g>
    <g transform="translate(-13.885 -39.345) scale(1.30738)" id="g37">
        <path id="path33" d="M197.6 112.5V127h-3.3v-1h2.1v-12.5h-2.1v-1z" class="st0" fill="#3466cc"/>
        <path id="path35" d="M192.5 112.5V127h-3.3v-1h2.1v-12.5h-2.1v-1z" class="st0" fill="#3466cc"/>
    </g>
    <g transform="translate(-13.885 -39.345) scale(1.30738)" id="g49">
        <path class="st2" id="Rectangle-4_3_" fill="#fff" d="M67.7 63.9h96.7v2H67.7z"/>
        <path class="st2" id="Rectangle-4_4_" fill="#fff" d="M67.7 91.5h117.4v2H67.7z"/>
        <path class="st2" id="Rectangle-4_5_" fill="#fff" d="M67.7 70.8h96.7v2H67.7z"/>
        <path class="st2" id="Rectangle-4_6_" fill="#fff" d="M67.7 84.6h96.7v2H67.7z"/>
        <path class="st2" id="Rectangle-4_7_" fill="#fff" d="M67.7 77.7h96.7v2H67.7z"/>
        <path class="st2" id="Rectangle-4_10_" fill="#fff" stroke-width="1.085" d="M67.7 98.4h117.4v2H67.7z"/>
        <path class="st3" id="Rectangle-4_9_" fill="#878787" stroke-width="1.085" d="M67.7 126h117.4v2H67.7z"/>
        <path class="st2" id="Rectangle-4_8_" fill="#fff" stroke-width="1.195" d="M67.7 105.3h117.4v2H67.7z"/>
        <path class="st2" id="Rectangle-4_2_" fill="#fff" stroke-width="1.085" d="M67.7 119.1h117.4v2H67.7z"/>
        <path class="st3" id="Rectangle-4_1_" fill="#878787" stroke-width="1.118" d="M67.7 112.2h117.4v2H67.7z"/>
    </g>
    <g transform="translate(209 50)" id="g67">
        <path id="path65" d="M 18.29 6.29 14.71 2.71 a 1 1 0 0 0 -1.41 0 L 3.71 12.29 a 1 1 0 0 0 0 1.41 L 4 14 1 18 H 6 l 1 -1 .29 .29 a 1 1 0 0 0 1.41 0 l 9.59 -9.59 A 1 1 0 0 0 18.29 6.29 Z M 7 15 5 13 l 9 -9 2 2 Z" class="st0" fill="#36c"/>
    </g>
    <g transform="translate(-16.814 -39.345) scale(1.30738)" id="g83">
        <path id="rect69" class="st6" fill="#00af89" d="M83.8 63.9h19.1V66H83.8z"/>
        <path id="rect71" class="st6" fill="#00af89" stroke-width=".956" d="M140.7 70.728h17.7v2.1h-17.7z"/>
        <path id="rect73" class="st7" fill="#facf89" stroke-width=".764" d="M82.1 77.708h27v2.1h-27z"/>
        <path id="rect75" class="st7" fill="#facf89" stroke-width=".764" d="M110.6 77.708h27v2.1h-27z"/>
        <path id="rect77" class="st6" fill="#00af89" d="M83.8 98.414h63.3v2.1H83.8z"/>
        <path id="rect79" class="st8" fill="#f5a623" d="M143.2 91.428h40.7v2.1h-40.7z"/>
        <path id="rect81" class="st8" fill="#f5a623" d="M135.3 112.128h34.1v2.1h-34.1z"/>
    </g>
</svg>
