<svg width="525" height="291" viewBox="0 0 525 291" fill="none" xmlns="http://www.w3.org/2000/svg">
<g transform="translate(525, 0) scale(-1, 1)">
<rect width="525" height="291" fill="white"/>
<rect x="429" y="88" width="75" height="179" fill="#E5E5E5"/>
<circle cx="50" cy="50" r="28" fill="#E5E5E5"/>
<rect x="22" y="88" width="56" height="12" fill="#E5E5E5"/>
<rect x="448" y="22" width="56" height="12" fill="#E5E5E5"/>
<rect x="432" y="22" width="12" height="12" fill="#E5E5E5"/>
<rect x="416" y="22" width="12" height="12" fill="#E5E5E5"/>
<rect x="400" y="22" width="12" height="12" fill="#E5E5E5"/>
<rect x="22" y="133" width="56" height="119" fill="#E5E5E5"/>
<rect x="96" y="88" width="307" height="203" fill="#E5E5E5"/>
<path d="M149 145H304" stroke="white" stroke-width="6"/>
<path d="M149 165H242" stroke="white" stroke-width="6"/>
<path d="M149 185H279" stroke="white" stroke-width="6"/>
<path d="M149 205H315" stroke="white" stroke-width="6"/>
<path d="M149 245H315" stroke="white" stroke-width="6"/>
<path d="M149 225H353" stroke="white" stroke-width="6"/>
<path d="M149 265H336" stroke="white" stroke-width="6"/>
<path d="M336.5 171L363.5 144L368 148.5L344 172.5L347.9 182.4L336.5 171ZM366.5 141H360.5L329 172.5L333.5 177L329 180V184.5L323 190.5V192H330.5L333.5 189H338L341 184.5L345.5 189L377 157.5V151.5L366.5 141ZM372.5 192H350V190.5L354.5 186H377V187.5L372.5 192Z" fill="#3466CC"/>
<path d="M113.256 157.616V156.119C114.6 156.119 115.538 155.838 116.069 155.274C116.608 154.711 116.878 153.769 116.878 152.449V148.585C116.878 147.474 116.982 146.513 117.192 145.7C117.409 144.887 117.759 144.214 118.242 143.683C118.725 143.152 119.369 142.758 120.174 142.5C120.979 142.242 121.973 142.114 123.156 142.114V144.48C122.223 144.48 121.486 144.625 120.947 144.915C120.415 145.205 120.037 145.655 119.812 146.267C119.594 146.871 119.486 147.643 119.486 148.585V153.415C119.486 154.043 119.401 154.614 119.232 155.129C119.071 155.644 118.769 156.087 118.327 156.457C117.884 156.828 117.252 157.113 116.431 157.315C115.618 157.516 114.56 157.616 113.256 157.616ZM123.156 173.023C121.973 173.023 120.979 172.894 120.174 172.636C119.369 172.379 118.725 171.984 118.242 171.453C117.759 170.922 117.409 170.25 117.192 169.437C116.982 168.624 116.878 167.662 116.878 166.551V162.688C116.878 161.367 116.608 160.426 116.069 159.862C115.538 159.299 114.6 159.017 113.256 159.017V157.52C114.56 157.52 115.618 157.621 116.431 157.822C117.252 158.023 117.884 158.309 118.327 158.679C118.769 159.049 119.071 159.492 119.232 160.007C119.401 160.522 119.486 161.094 119.486 161.722V166.551C119.486 167.493 119.594 168.266 119.812 168.869C120.037 169.473 120.415 169.92 120.947 170.21C121.486 170.507 122.223 170.656 123.156 170.656V173.023ZM113.256 159.017V156.119H116.105V159.017H113.256ZM125.574 157.616V156.119C126.918 156.119 127.856 155.838 128.387 155.274C128.927 154.711 129.196 153.769 129.196 152.449V148.585C129.196 147.474 129.301 146.513 129.51 145.7C129.727 144.887 130.078 144.214 130.561 143.683C131.044 143.152 131.687 142.758 132.492 142.5C133.297 142.242 134.291 142.114 135.475 142.114V144.48C134.541 144.48 133.804 144.625 133.265 144.915C132.734 145.205 132.356 145.655 132.13 146.267C131.913 146.871 131.804 147.643 131.804 148.585V153.415C131.804 154.043 131.72 154.614 131.551 155.129C131.39 155.644 131.088 156.087 130.645 156.457C130.202 156.828 129.57 157.113 128.749 157.315C127.936 157.516 126.878 157.616 125.574 157.616ZM135.475 173.023C134.291 173.023 133.297 172.894 132.492 172.636C131.687 172.379 131.044 171.984 130.561 171.453C130.078 170.922 129.727 170.25 129.51 169.437C129.301 168.624 129.196 167.662 129.196 166.551V162.688C129.196 161.367 128.927 160.426 128.387 159.862C127.856 159.299 126.918 159.017 125.574 159.017V157.52C126.878 157.52 127.936 157.621 128.749 157.822C129.57 158.023 130.202 158.309 130.645 158.679C131.088 159.049 131.39 159.492 131.551 160.007C131.72 160.522 131.804 161.094 131.804 161.722V166.551C131.804 167.493 131.913 168.266 132.13 168.869C132.356 169.473 132.734 169.92 133.265 170.21C133.804 170.507 134.541 170.656 135.475 170.656V173.023ZM125.574 159.017V156.119H128.423V159.017H125.574Z" fill="#3466CC"/>
<path d="M168.495 141.589V140.657C169.099 140.657 169.52 140.535 169.758 140.29C169.999 140.041 170.12 139.638 170.12 139.081V137.722C170.12 137.122 170.195 136.63 170.344 136.247C170.496 135.863 170.718 135.565 171.01 135.352C171.301 135.139 171.656 134.991 172.075 134.91C172.494 134.825 172.97 134.782 173.502 134.782V136.263C173.083 136.263 172.762 136.321 172.538 136.439C172.315 136.552 172.16 136.728 172.075 136.966C171.993 137.204 171.952 137.507 171.952 137.877V139.624C171.952 139.897 171.906 140.153 171.814 140.391C171.722 140.629 171.553 140.838 171.308 141.02C171.063 141.197 170.713 141.337 170.259 141.44C169.808 141.54 169.22 141.589 168.495 141.589ZM173.502 148.317C172.97 148.317 172.494 148.275 172.075 148.189C171.656 148.108 171.301 147.96 171.01 147.747C170.718 147.534 170.496 147.236 170.344 146.852C170.195 146.469 170.12 145.977 170.12 145.377V144.024C170.12 143.466 169.999 143.065 169.758 142.82C169.52 142.571 169.099 142.447 168.495 142.447V141.515C169.22 141.515 169.808 141.566 170.259 141.669C170.713 141.769 171.063 141.909 171.308 142.09C171.553 142.268 171.722 142.475 171.814 142.713C171.906 142.951 171.952 143.205 171.952 143.475V145.222C171.952 145.592 171.993 145.895 172.075 146.133C172.16 146.371 172.315 146.549 172.538 146.666C172.762 146.783 173.083 146.842 173.502 146.842V148.317ZM168.495 142.447V140.657H170.184V142.447H168.495Z" fill="#099979"/>
<path d="M159.495 240.589V239.657C160.099 239.657 160.52 239.535 160.758 239.29C160.999 239.041 161.12 238.638 161.12 238.081V236.722C161.12 236.122 161.195 235.63 161.344 235.247C161.496 234.863 161.718 234.565 162.01 234.352C162.301 234.139 162.656 233.991 163.075 233.91C163.494 233.825 163.97 233.782 164.502 233.782V235.263C164.083 235.263 163.762 235.321 163.538 235.439C163.315 235.552 163.16 235.728 163.075 235.966C162.993 236.204 162.952 236.507 162.952 236.877V238.624C162.952 238.897 162.906 239.153 162.814 239.391C162.722 239.629 162.553 239.838 162.308 240.02C162.063 240.197 161.713 240.337 161.259 240.44C160.808 240.54 160.22 240.589 159.495 240.589ZM164.502 247.317C163.97 247.317 163.494 247.275 163.075 247.189C162.656 247.108 162.301 246.96 162.01 246.747C161.718 246.534 161.496 246.236 161.344 245.852C161.195 245.469 161.12 244.977 161.12 244.377V243.024C161.12 242.466 160.999 242.065 160.758 241.82C160.52 241.571 160.099 241.447 159.495 241.447V240.515C160.22 240.515 160.808 240.566 161.259 240.669C161.713 240.769 162.063 240.909 162.308 241.09C162.553 241.268 162.722 241.475 162.814 241.713C162.906 241.951 162.952 242.205 162.952 242.475V244.222C162.952 244.592 162.993 244.895 163.075 245.133C163.16 245.371 163.315 245.549 163.538 245.666C163.762 245.783 164.083 245.842 164.502 245.842V247.317ZM159.495 241.447V239.657H161.184V241.447H159.495Z" fill="#E91BCB"/>
<path d="M153.495 181.589V180.657C154.099 180.657 154.52 180.535 154.758 180.29C154.999 180.041 155.12 179.638 155.12 179.081V177.722C155.12 177.122 155.195 176.63 155.344 176.247C155.496 175.863 155.718 175.565 156.01 175.352C156.301 175.139 156.656 174.991 157.075 174.91C157.494 174.825 157.97 174.782 158.502 174.782V176.263C158.083 176.263 157.762 176.321 157.538 176.439C157.315 176.552 157.16 176.728 157.075 176.966C156.993 177.204 156.952 177.507 156.952 177.877V179.624C156.952 179.897 156.906 180.153 156.814 180.391C156.722 180.629 156.553 180.838 156.308 181.02C156.063 181.197 155.713 181.337 155.259 181.44C154.808 181.54 154.22 181.589 153.495 181.589ZM158.502 188.317C157.97 188.317 157.494 188.275 157.075 188.189C156.656 188.108 156.301 187.96 156.01 187.747C155.718 187.534 155.496 187.236 155.344 186.852C155.195 186.469 155.12 185.977 155.12 185.377V184.024C155.12 183.466 154.999 183.065 154.758 182.82C154.52 182.571 154.099 182.447 153.495 182.447V181.515C154.22 181.515 154.808 181.566 155.259 181.669C155.713 181.769 156.063 181.909 156.308 182.09C156.553 182.268 156.722 182.475 156.814 182.713C156.906 182.951 156.952 183.205 156.952 183.475V185.222C156.952 185.592 156.993 185.895 157.075 186.133C157.16 186.371 157.315 186.549 157.538 186.666C157.762 186.783 158.083 186.842 158.502 186.842V188.317ZM153.495 182.447V180.657H155.184V182.447H153.495Z" fill="#AB7F2A"/>
<path d="M228.407 161.515V162.447C227.803 162.447 227.38 162.571 227.139 162.82C226.901 163.065 226.782 163.466 226.782 164.024V165.377C226.782 165.977 226.706 166.469 226.553 166.852C226.404 167.236 226.184 167.534 225.892 167.747C225.601 167.96 225.246 168.108 224.827 168.189C224.408 168.275 223.932 168.317 223.4 168.317V166.842C223.819 166.842 224.14 166.783 224.364 166.666C224.587 166.549 224.74 166.371 224.822 166.133C224.907 165.895 224.95 165.592 224.95 165.222V163.475C224.95 163.205 224.996 162.951 225.088 162.713C225.18 162.475 225.349 162.268 225.594 162.09C225.839 161.909 226.187 161.769 226.638 161.669C227.093 161.566 227.682 161.515 228.407 161.515ZM223.4 154.782C223.932 154.782 224.408 154.825 224.827 154.91C225.246 154.991 225.601 155.139 225.892 155.352C226.184 155.565 226.404 155.863 226.553 156.247C226.706 156.63 226.782 157.122 226.782 157.722V159.081C226.782 159.638 226.901 160.041 227.139 160.29C227.38 160.535 227.803 160.657 228.407 160.657V161.589C227.682 161.589 227.093 161.54 226.638 161.44C226.187 161.337 225.839 161.197 225.594 161.02C225.349 160.838 225.18 160.629 225.088 160.391C224.996 160.153 224.95 159.897 224.95 159.624V157.877C224.95 157.507 224.907 157.204 224.822 156.966C224.74 156.728 224.587 156.552 224.364 156.439C224.14 156.321 223.819 156.263 223.4 156.263V154.782ZM228.407 160.657V162.447H226.718V160.657H228.407Z" fill="#099979"/>
<path d="M303.407 240.515V241.447C302.803 241.447 302.38 241.571 302.139 241.82C301.901 242.065 301.782 242.466 301.782 243.024V244.377C301.782 244.977 301.706 245.469 301.553 245.852C301.404 246.236 301.184 246.534 300.892 246.747C300.601 246.96 300.246 247.108 299.827 247.189C299.408 247.275 298.932 247.317 298.4 247.317V245.842C298.819 245.842 299.14 245.783 299.364 245.666C299.587 245.549 299.74 245.371 299.822 245.133C299.907 244.895 299.95 244.592 299.95 244.222V242.475C299.95 242.205 299.996 241.951 300.088 241.713C300.18 241.475 300.349 241.268 300.594 241.09C300.839 240.909 301.187 240.769 301.638 240.669C302.093 240.566 302.682 240.515 303.407 240.515ZM298.4 233.782C298.932 233.782 299.408 233.825 299.827 233.91C300.246 233.991 300.601 234.139 300.892 234.352C301.184 234.565 301.404 234.863 301.553 235.247C301.706 235.63 301.782 236.122 301.782 236.722V238.081C301.782 238.638 301.901 239.041 302.139 239.29C302.38 239.535 302.803 239.657 303.407 239.657V240.589C302.682 240.589 302.093 240.54 301.638 240.44C301.187 240.337 300.839 240.197 300.594 240.02C300.349 239.838 300.18 239.629 300.088 239.391C299.996 239.153 299.95 238.897 299.95 238.624V236.877C299.95 236.507 299.907 236.204 299.822 235.966C299.74 235.728 299.587 235.552 299.364 235.439C299.14 235.321 298.819 235.263 298.4 235.263V233.782ZM303.407 239.657V241.447H301.718V239.657H303.407Z" fill="#E91BCB"/>
<path d="M281.407 201.515V202.447C280.803 202.447 280.38 202.571 280.139 202.82C279.901 203.065 279.782 203.466 279.782 204.024V205.377C279.782 205.977 279.706 206.469 279.553 206.852C279.404 207.236 279.184 207.534 278.892 207.747C278.601 207.96 278.246 208.108 277.827 208.189C277.408 208.275 276.932 208.317 276.4 208.317V206.842C276.819 206.842 277.14 206.783 277.364 206.666C277.587 206.549 277.74 206.371 277.822 206.133C277.907 205.895 277.95 205.592 277.95 205.222V203.475C277.95 203.205 277.996 202.951 278.088 202.713C278.18 202.475 278.349 202.268 278.594 202.09C278.839 201.909 279.187 201.769 279.638 201.669C280.093 201.566 280.682 201.515 281.407 201.515ZM276.4 194.782C276.932 194.782 277.408 194.825 277.827 194.91C278.246 194.991 278.601 195.139 278.892 195.352C279.184 195.565 279.404 195.863 279.553 196.247C279.706 196.63 279.782 197.122 279.782 197.722V199.081C279.782 199.638 279.901 200.041 280.139 200.29C280.38 200.535 280.803 200.657 281.407 200.657V201.589C280.682 201.589 280.093 201.54 279.638 201.44C279.187 201.337 278.839 201.197 278.594 201.02C278.349 200.838 278.18 200.629 278.088 200.391C277.996 200.153 277.95 199.897 277.95 199.624V197.877C277.95 197.507 277.907 197.204 277.822 196.966C277.74 196.728 277.587 196.552 277.364 196.439C277.14 196.321 276.819 196.263 276.4 196.263V194.782ZM281.407 200.657V202.447H279.718V200.657H281.407Z" fill="#AB7F2A"/>
<path d="M378.744 250.616V249.119C377.4 249.119 376.462 248.838 375.931 248.274C375.392 247.711 375.122 246.769 375.122 245.449V241.585C375.122 240.474 375.018 239.513 374.808 238.7C374.591 237.887 374.241 237.214 373.758 236.683C373.275 236.152 372.631 235.758 371.826 235.5C371.021 235.242 370.027 235.114 368.844 235.114V237.48C369.777 237.48 370.514 237.625 371.053 237.915C371.585 238.205 371.963 238.655 372.188 239.267C372.406 239.871 372.514 240.643 372.514 241.585V246.415C372.514 247.043 372.599 247.614 372.768 248.129C372.929 248.644 373.231 249.087 373.673 249.457C374.116 249.828 374.748 250.113 375.569 250.315C376.382 250.516 377.44 250.616 378.744 250.616ZM368.844 266.023C370.027 266.023 371.021 265.894 371.826 265.636C372.631 265.379 373.275 264.984 373.758 264.453C374.241 263.922 374.591 263.25 374.808 262.437C375.018 261.624 375.122 260.662 375.122 259.551V255.688C375.122 254.367 375.392 253.426 375.931 252.862C376.462 252.299 377.4 252.017 378.744 252.017V250.52C377.44 250.52 376.382 250.621 375.569 250.822C374.748 251.023 374.116 251.309 373.673 251.679C373.231 252.049 372.929 252.492 372.768 253.007C372.599 253.522 372.514 254.094 372.514 254.722V259.551C372.514 260.493 372.406 261.266 372.188 261.869C371.963 262.473 371.585 262.92 371.053 263.21C370.514 263.507 369.777 263.656 368.844 263.656V266.023ZM378.744 252.017V249.119H375.895V252.017H378.744ZM366.426 250.616V249.119C365.082 249.119 364.144 248.838 363.613 248.274C363.073 247.711 362.804 246.769 362.804 245.449V241.585C362.804 240.474 362.699 239.513 362.49 238.7C362.273 237.887 361.922 237.214 361.439 236.683C360.956 236.152 360.313 235.758 359.508 235.5C358.703 235.242 357.709 235.114 356.525 235.114V237.48C357.459 237.48 358.196 237.625 358.735 237.915C359.266 238.205 359.644 238.655 359.87 239.267C360.087 239.871 360.196 240.643 360.196 241.585V246.415C360.196 247.043 360.28 247.614 360.449 248.129C360.61 248.644 360.912 249.087 361.355 249.457C361.798 249.828 362.43 250.113 363.251 250.315C364.064 250.516 365.122 250.616 366.426 250.616ZM356.525 266.023C357.709 266.023 358.703 265.894 359.508 265.636C360.313 265.379 360.956 264.984 361.439 264.453C361.922 263.922 362.273 263.25 362.49 262.437C362.699 261.624 362.804 260.662 362.804 259.551V255.688C362.804 254.367 363.073 253.426 363.613 252.862C364.144 252.299 365.082 252.017 366.426 252.017V250.52C365.122 250.52 364.064 250.621 363.251 250.822C362.43 251.023 361.798 251.309 361.355 251.679C360.912 252.049 360.61 252.492 360.449 253.007C360.28 253.522 360.196 254.094 360.196 254.722V259.551C360.196 260.493 360.087 261.266 359.87 261.869C359.644 262.473 359.266 262.92 358.735 263.21C358.196 263.507 357.459 263.656 356.525 263.656V266.023ZM366.426 252.017V249.119H363.577V252.017H366.426Z" fill="#3466CC"/>
<rect x="96" y="88" width="307" height="23" fill="#D6D6D6"/>
</g>
</svg>
