<?xml version="1.0" encoding="UTF-8" standalone="no"?>
<svg xmlns="http://www.w3.org/2000/svg" xmlns:xlink="http://www.w3.org/1999/xlink" id="svg2" height="22" width="23">
    <defs id="defs4">
        <linearGradient id="linearGradient1">
            <stop offset="0" id="stop1" stop-color="#d7e7fe"/>
            <stop offset=".632" id="stop2" stop-color="#a3b6d0"/>
            <stop offset=".895" id="stop3" stop-color="#90a3bd"/>
            <stop offset="1" id="stop4" stop-color="#7588a3"/>
        </linearGradient>
        <linearGradient gradientUnits="userSpaceOnUse" xlink:href="#linearGradient1" id="linearGradient2" y2="20.5" x2="0" y1="1.5"/>
        <linearGradient gradientUnits="userSpaceOnUse" xlink:href="#linearGradient1" id="linearGradient3018" y2="20.5" x2="0" y1="1.5"/>
        <linearGradient gradientUnits="userSpaceOnUse" xlink:href="#linearGradient1" id="linearGradient3022" y2="20.5" x2="0" y1="1.5"/>
        <linearGradient gradientUnits="userSpaceOnUse" xlink:href="#linearGradient1" id="linearGradient3026" y2="20.5" x2="0" y1="1.5"/>
        <linearGradient gradientUnits="userSpaceOnUse" xlink:href="#linearGradient1" id="linearGradient3030" y2="20.5" x2="0" y1="1.5"/>
        <linearGradient gradientUnits="userSpaceOnUse" xlink:href="#linearGradient1" id="linearGradient3034" y2="20.5" x2="0" y1="1.5"/>
        <linearGradient gradientUnits="userSpaceOnUse" xlink:href="#linearGradient1" id="linearGradient3038" y2="20.5" x2="0" y1="1.5"/>
        <linearGradient gradientUnits="userSpaceOnUse" xlink:href="#linearGradient1" id="linearGradient3042" y2="20.5" x2="0" y1="1.5"/>
        <linearGradient gradientUnits="userSpaceOnUse" xlink:href="#linearGradient1" id="linearGradient3046" y2="20.5" x2="0" y1="1.5"/>
        <linearGradient gradientUnits="userSpaceOnUse" xlink:href="#linearGradient1" id="linearGradient3050" y2="20.5" x2="0" y1="1.5"/>
        <linearGradient gradientUnits="userSpaceOnUse" xlink:href="#linearGradient1" id="linearGradient3054" y2="20.5" x2="0" y1="1.5"/>
        <linearGradient gradientUnits="userSpaceOnUse" xlink:href="#linearGradient1" id="linearGradient3058" y2="20.5" x2="0" y1="1.5"/>
        <linearGradient gradientUnits="userSpaceOnUse" xlink:href="#linearGradient1" id="linearGradient3062" y2="20.5" x2="0" y1="1.5"/>
        <linearGradient gradientUnits="userSpaceOnUse" xlink:href="#linearGradient1" id="linearGradient3066" y2="20.5" x2="0" y1="1.5"/>
        <filter id="filter4646" color-interpolation-filters="sRGB">
            <feGaussianBlur id="feGaussianBlur4648" stdDeviation=".72"/>
        </filter>
    </defs>
    <path id="rect3016" fill="url(#linearGradient3018)" d="M.5.5h22v21H.5z"/>
    <path id="rect3020" fill="url(#linearGradient3022)" d="M.5.5h22v21H.5z"/>
    <path id="rect3024" fill="url(#linearGradient3026)" d="M.5.5h22v21H.5z"/>
    <path id="rect3028" fill="url(#linearGradient3030)" d="M.5.5h22v21H.5z"/>
    <path id="rect3032" fill="url(#linearGradient3034)" d="M.5.5h22v21H.5z"/>
    <path id="rect3036" fill="url(#linearGradient3038)" d="M.5.5h22v21H.5z"/>
    <path id="rect3040" fill="url(#linearGradient3042)" d="M.5.5h22v21H.5z"/>
    <path id="rect3044" fill="url(#linearGradient3046)" d="M.5.5h22v21H.5z"/>
    <path id="rect3048" fill="url(#linearGradient3050)" d="M.5.5h22v21H.5z"/>
    <path id="rect3052" fill="url(#linearGradient3054)" d="M.5.5h22v21H.5z"/>
    <path id="rect3056" fill="url(#linearGradient3058)" d="M.5.5h22v21H.5z"/>
    <path id="rect3060" fill="url(#linearGradient3062)" d="M.5.5h22v21H.5z"/>
    <path id="rect3064" fill="url(#linearGradient3066)" d="M.5.5h22v21H.5z"/>
    <path id="rect12" fill="url(#linearGradient2)" d="M.5.5h22v21H.5z"/>
    <path id="path14" d="M22.1 0v1H1v20.1H0V.9S0 0 .9 0" fill="#fff"/>
    <path id="path16" d="M22 1l.1-1s.9 0 .9.9v20.2s0 .9-.9.9H.9s-.9 0-.9-.9l1-.1h21" fill="#435978"/>
    <text style="line-height:125%;-inkscape-font-specification:Sans" id="text2991" y="8.576" x="8.203" font-size="12" font-weight="400" letter-spacing="0" word-spacing="0" font-family="Sans"/>
    <g id="g4347">
        <g id="g4585" transform="matrix(.237 0 0 .237 -3.656 -3.92)">
            <circle id="circle4545" cx="85.233" cy="41.768" r="5.993"/>
            <circle id="circle4547" cx="71.773" cy="33.995" r="5.992"/>
            <circle id="circle4549" cx="93.006" cy="55.229" r="5.993"/>
            <circle id="circle4551" cx="56.226" cy="33.995" r="5.994"/>
            <circle id="circle4553" cx="93.005" cy="70.773" r="5.992"/>
            <path id="path4555" d="M38.527 37.53a5.997 5.997 0 0 1 8.478 0 5.996 5.996 0 0 1 0 8.475 5.998 5.998 0 0 1-8.478.002 5.998 5.998 0 0 1 0-8.477zm42.47 42.465a5.996 5.996 0 0 1 8.474 0A5.995 5.995 0 0 1 81 88.472a5.997 5.997 0 0 1 0-8.477zM36.543 49.442a5.99 5.99 0 0 1 4.24 7.338 5.99 5.99 0 0 1-7.34 4.236 5.987 5.987 0 0 1-4.237-7.34 5.987 5.987 0 0 1 7.337-4.234zM70.22 86.216a5.99 5.99 0 0 1 7.34 4.24 5.992 5.992 0 0 1-11.576 3.1 5.992 5.992 0 0 1 4.237-7.34zm-36.78-21.23a5.993 5.993 0 1 1-4.234 7.34 5.987 5.987 0 0 1 4.236-7.34z"/>
            <circle id="circle4557" cx="56.226" cy="92.005" r="5.993"/>
            <path id="path4559" d="M38.527 79.995a5.998 5.998 0 0 1 8.477 0 5.998 5.998 0 0 1 0 8.477 5.998 5.998 0 0 1-8.477 0 5.998 5.998 0 0 1 0-8.477zm0-33.99a5.998 5.998 0 0 0 8.477 0 5.996 5.996 0 0 0 0-8.476 5.997 5.997 0 0 0-8.477 0 5.998 5.998 0 0 0 0 8.473zm-5.083 15.01a5.99 5.99 0 1 0 3.1-11.573 5.988 5.988 0 0 0-7.337 4.234 5.987 5.987 0 0 0 4.237 7.34z"/>
            <circle id="circle4561" cx="34.993" cy="70.773" r="5.992"/>
            <path id="path4563" d="M47.004 88.472a5.998 5.998 0 0 0 0-8.477 5.998 5.998 0 0 0-8.477 0 5.998 5.998 0 0 0 0 8.477 5.998 5.998 0 0 0 8.477 0z"/>
            <circle id="circle4565" cx="56.228" cy="92.006" r="5.992"/>
            <path id="path4567" d="M62.017 32.445a5.993 5.993 0 0 0-11.577 3.1 5.99 5.99 0 0 0 7.338 4.24 5.996 5.996 0 0 0 4.24-7.34zm13.613 23.84a3.352 3.352 0 0 1 1.227-4.573 3.35 3.35 0 0 1 4.574 1.225 3.35 3.35 0 0 1-5.8 3.35z"/>
            <circle id="circle4569" cx="72.389" cy="48.469" r="3.347"/>
            <path id="path4571" d="M60.652 46.223a3.347 3.347 0 0 1 3.346-3.35 3.344 3.344 0 0 1 3.35 3.35 3.348 3.348 0 0 1-6.696 0zM77.43 63a3.35 3.35 0 0 1 6.7-.002 3.346 3.346 0 0 1-3.35 3.35A3.347 3.347 0 0 1 77.43 63zM53.934 45.57a3.348 3.348 0 0 1 4.576 1.226 3.347 3.347 0 0 1-1.226 4.575 3.35 3.35 0 0 1-4.575-1.222 3.353 3.353 0 0 1 1.22-4.574z"/>
            <circle id="circle4573" cx="78.531" cy="71.391" r="3.349"/>
            <path id="path4575" d="M51.142 51.713a3.348 3.348 0 1 1-4.573 1.223 3.344 3.344 0 0 1 4.57-1.223z"/>
            <circle id="circle4577" cx="72.391" cy="77.531" r="3.348"/>
            <path id="path4579" d="M50.568 63c0 1.85-1.5 3.35-3.347 3.346A3.343 3.343 0 0 1 43.878 63a3.34 3.34 0 0 1 3.346-3.348c1.853 0 3.35 1.5 3.35 3.348z"/>
            <circle id="circle4581" cx="64" cy="79.778" r="3.348"/>
            <path id="path4583" d="M47.793 68.49a3.35 3.35 0 1 1 3.35 5.8 3.35 3.35 0 0 1-3.35-5.8zM58.51 79.206a3.35 3.35 0 1 1-5.8-3.35 3.35 3.35 0 0 1 5.8 3.35z"/>
        </g>
        <path id="circle3121-3" d="M293.1-26.356c-.18.01-.386.06-.568.08-.496.057-.992.117-1.462.245-.06.01-.102.06-.163.08-1.057.304-2.047.84-2.923 1.46-.225.16-.442.31-.65.485-.345.29-.674.557-.975.892-.207.227-.39.486-.57.73-.1.13-.158.272-.247.406-.66.992-1.198 2.076-1.462 3.248-.016.078.016.167 0 .245-.104.525-.226 1.08-.242 1.623-.003.106 0 .22 0 .325v.163a9.75 9.75 0 0 0 .324 2.356c.1.367.27.708.406 1.054.056.138.106.274.165.408.18.402.423.77.65 1.138.138.22.25.44.406.65.127.17.27.325.41.487.31.37.61.736.972 1.055.06.052.106.113.165.163.38.32.792.635 1.218.894.053.032.11.05.163.08a9.5 9.5 0 0 0 1.3.65c.337.135.7.23 1.054.326.62.17 1.29.2 1.95.245.585.038 1.19.07 1.787 0a9.67 9.67 0 0 0 3.25-.975c.366-.184.72-.343 1.054-.568.19-.13.39-.265.57-.407.32-.248.61-.528.893-.812.04-.04.04-.12.08-.16a9.66 9.66 0 0 0 1.382-1.785c.02-.032.06-.05.08-.08.03-.053.05-.11.08-.164.277-.495.544-.992.73-1.54.054-.153.037-.33.083-.487.13-.45.26-.903.323-1.38.114-.81.1-1.675 0-2.516a9.828 9.828 0 0 0-.243-1.38c-.023-.088-.056-.16-.08-.245a9.82 9.82 0 0 0-2.925-4.55 10.64 10.64 0 0 0-1.058-.81c-.164-.107-.32-.227-.49-.325-.127-.074-.274-.094-.405-.162-.976-.506-2.034-.902-3.168-1.055a9.166 9.166 0 0 0-1.87-.08zm25.908 0c-5.406 0-9.746 4.42-9.746 9.827a9.716 9.716 0 0 0 9.746 9.75c5.407 0 9.828-4.34 9.828-9.745 0-5.405-4.42-9.826-9.828-9.826zm-47.35 12.67c-2.506 0-4.99 1.012-6.902 2.923a9.75 9.75 0 0 0 0 13.807 9.748 9.748 0 0 0 13.806 0 9.75 9.75 0 0 0 0-13.807c-1.912-1.91-4.396-2.924-6.903-2.924zm69.36 0c-5.407 0-9.746 4.42-9.746 9.827a9.715 9.715 0 0 0 9.746 9.75c5.407 0 9.827-4.34 9.827-9.745 0-5.406-4.42-9.827-9.827-9.827zm-34.68 11.613c-3.018.002-5.44 2.498-5.44 5.523a5.422 5.422 0 0 0 5.44 5.442 5.422 5.422 0 0 0 5.442-5.442c0-3.025-2.414-5.53-5.44-5.523zm13.726 3.655c-3.02 0-5.523 2.503-5.523 5.523 0 3.02 2.508 5.44 5.528 5.44a5.423 5.423 0 0 0 5.442-5.44c0-3.02-2.423-5.523-5.443-5.523zm-28.1.08c-.707.09-1.376.273-2.03.65-2.612 1.51-3.538 4.856-2.032 7.473 1.51 2.614 4.86 3.538 7.472 2.03 2.62-1.51 3.542-4.85 2.03-7.47-1.13-1.964-3.324-2.945-5.44-2.682zm-32.406 6.66c-4.544-.274-8.848 2.66-10.07 7.23-1.406 5.225 1.676 10.623 6.902 12.02 5.22 1.4 10.62-1.68 12.02-6.904 1.4-5.223-1.68-10.625-6.903-12.02a9.776 9.776 0 0 0-1.95-.325zm94.13 0c-5.407 0-9.746 4.42-9.746 9.828a9.715 9.715 0 0 0 9.746 9.746c5.407 0 9.827-4.34 9.827-9.746 0-5.407-4.42-9.827-9.827-9.827zm-71.47 3.33a5.557 5.557 0 0 0-4.387 2.762c-1.504 2.62-.58 5.966 2.036 7.472 2.62 1.51 5.96.59 7.472-2.03 1.51-2.62.59-5.966-2.03-7.472a5.358 5.358 0 0 0-3.087-.73zm47.186 0c-.705.088-1.376.355-2.03.732-2.614 1.51-3.537 4.855-2.03 7.472 1.512 2.617 4.854 3.54 7.47 2.03 2.617-1.506 3.544-4.853 2.032-7.472-1.134-1.96-3.327-3.023-5.442-2.76zM278.887 25.38a5.413 5.413 0 0 0-5.44 5.44c-.003 3.022 2.498 5.442 5.52 5.442a5.42 5.42 0 0 0 5.443-5.442c0-3.02-2.497-5.44-5.523-5.44zm54.903 0c-3.02-.003-5.52 2.418-5.523 5.44.002 3.024 2.5 5.44 5.523 5.442a5.415 5.415 0 0 0 5.44-5.442 5.423 5.423 0 0 0-5.44-5.44zm-75.45 8.364c-.19.01-.38.06-.57.08a9.828 9.828 0 0 0-1.38.245c-.086.02-.158.05-.243.08-1.084.322-2.116.802-3.005 1.46-.238.172-.43.373-.65.57-.276.24-.484.54-.73.81-.22.24-.46.47-.65.73-.105.14-.23.26-.326.406-.186.282-.33.59-.487.892-.488.93-.897 1.93-1.06 3.004-.04.27.02.538 0 .812-.016.22-.08.423-.08.65v.16c.003.32.04.65.08.976.052.468.126.935.243 1.38.006.026-.007.056 0 .082.016.06.063.1.08.16.167.57.39 1.104.65 1.626.202.403.4.773.65 1.138.044.065.118.1.163.163.16.225.307.443.486.65.29.345.558.674.894.975.228.202.487.388.732.568.11.082.21.166.323.244 2.268 1.526 5.194 2.142 8.04 1.38 1.21-.324 2.3-.93 3.25-1.625.08-.06.166-.1.244-.162.09-.07.154-.17.242-.243.402-.34.793-.656 1.136-1.057A9.422 9.422 0 0 0 268 47.3c.023-.056.06-.106.08-.16.135-.34.23-.705.325-1.058a9.76 9.76 0 0 0 .243-1.22c.113-.812.1-1.676 0-2.517a9.695 9.695 0 0 0-.244-1.38c-.01-.036-.07-.05-.08-.083-.174-.614-.37-1.226-.65-1.786-.773-1.542-1.87-2.81-3.25-3.735-.177-.12-.384-.214-.57-.322a9.957 9.957 0 0 0-1.136-.568c-.056-.025-.106-.06-.162-.08-.34-.136-.702-.23-1.056-.327a9.36 9.36 0 0 0-1.218-.245c-.63-.086-1.3-.12-1.95-.08zm95.348 0a9.716 9.716 0 0 0-9.746 9.746c0 5.406 4.34 9.827 9.746 9.827 5.406 0 9.827-4.42 9.827-9.827 0-5.406-4.42-9.746-9.827-9.746zm-23.634 5.28c-3.022 0-5.442 2.5-5.442 5.522a5.42 5.42 0 0 0 5.442 5.44c3.02 0 5.523-2.42 5.523-5.44 0-3.022-2.502-5.523-5.523-5.523zm-48.162.08c-.705.088-1.375.273-2.03.65-2.616 1.51-3.542 4.855-2.03 7.472 1.51 2.615 4.853 3.54 7.47 2.03 2.615-1.512 3.538-4.856 2.032-7.472-1.135-1.965-3.325-2.943-5.442-2.68zm10.396 9.99a5.548 5.548 0 0 0-4.386 2.76c-1.512 2.617-.583 5.962 2.03 7.473 2.618 1.51 5.963.585 7.473-2.03 1.51-2.617.593-5.963-2.03-7.472a5.363 5.363 0 0 0-3.087-.73zm27.776 0c-3.02 0-5.523 2.42-5.523 5.44 0 3.022 2.508 5.524 5.528 5.524 3.02 0 5.442-2.502 5.442-5.523a5.42 5.42 0 0 0-5.443-5.44zM306.34 52.75a5.422 5.422 0 0 0-5.443 5.44c0 3.02 2.42 5.523 5.442 5.523 3.02 0 5.44-2.502 5.44-5.523a5.42 5.42 0 0 0-5.44-5.44zm-34.68 3.004c-2.507 0-4.993.932-6.904 2.842a9.75 9.75 0 0 0 0 13.807 9.748 9.748 0 0 0 13.806 0 9.748 9.748 0 0 0 0-13.807c-1.91-1.91-4.397-2.842-6.903-2.842zm69.358 0c-2.506 0-4.992.933-6.903 2.842a9.746 9.746 0 0 0 0 13.807 9.748 9.748 0 0 0 13.807 0 9.743 9.743 0 0 0 0-13.807c-1.91-1.91-4.398-2.843-6.904-2.842zm-47.35 12.67c-.675 0-1.392.03-2.03.162-.637.13-1.2.32-1.786.568-3.514 1.487-6.01 4.96-6.01 9.015 0 5.402 4.42 9.823 9.827 9.823.67 0 1.31-.032 1.944-.163 4.46-.912 7.797-4.933 7.797-9.664a9.694 9.694 0 0 0-2.842-6.904 9.693 9.693 0 0 0-6.903-2.843zm24.772 0c-.65.038-1.297.15-1.95.324-5.224 1.402-8.304 6.798-6.903 12.02 1.4 5.223 6.793 8.307 12.02 6.904 5.218-1.4 8.304-6.798 6.904-12.02-1.22-4.573-5.52-7.5-10.07-7.23z" fill-opacity=".5" transform="matrix(.14507 0 0 .14507 -32.948 6.652)"/>
    </g>
</svg>
